# Blender v2.79 (sub 0) OBJ File: 'untitled.blend'
# www.blender.org
mtllib mesh.mtl
o Cone
v 2.064101 0.022330 -0.903441
v 3.796152 0.022330 -0.903441
v 2.930127 0.022330 0.596559
v 2.930127 0.022330 -2.403441
v 4.662178 0.022330 -2.403441
v 5.528203 0.022330 -0.903441
v 2.113445 0.022330 -3.911921
v 0.361712 0.022330 -3.919010
v 1.227737 0.022330 -2.419009
v -1.370339 0.022330 -3.919009
v -0.504314 0.022330 -2.419009
v -2.236365 0.022330 -2.419009
v -1.361141 0.022330 -0.934941
v -3.973014 0.022330 -2.442071
v -4.865923 0.022330 -0.944789
v -3.133873 0.022330 -0.944790
v -3.999897 0.022330 0.555211
v -2.265498 0.022330 0.585401
v -3.131523 0.022330 2.085401
v -0.535575 0.022330 0.581717
v -1.405273 0.022330 2.088079
v -0.539247 0.022330 3.588079
v 0.332051 0.022330 2.096560
v 2.064101 0.022330 2.096560
v 1.198076 0.022330 3.596560
v 1.198076 0.022330 0.596560
vn 0.0000 -1.0000 0.0000
vn 0.0000 1.0000 0.0000
usemtl None
s off
f 1//1 3//1 26//1
f 3//2 2//2 1//2
f 4//1 2//1 1//1
f 1//2 4//2 9//2
f 2//2 5//2 4//2
f 5//1 6//1 2//1
f 7//1 4//1 9//1
f 9//2 7//2 8//2
f 8//1 9//1 11//1
f 11//2 8//2 10//2
f 10//1 11//1 12//1
f 13//2 11//2 12//2
f 12//1 13//1 16//1
f 16//2 12//2 14//2
f 14//1 16//1 15//1
f 17//2 16//2 15//2
f 16//1 18//1 17//1
f 19//2 18//2 17//2
f 18//1 21//1 19//1
f 21//2 20//2 18//2
f 20//1 23//1 21//1
f 22//2 23//2 21//2
f 23//1 25//1 22//1
f 25//2 24//2 23//2
f 26//1 24//1 23//1
f 24//2 3//2 26//2
